<svg xmlns="http://www.w3.org/2000/svg" width="31" height="39" fill="none" viewBox="0 0 31 39"><path fill="#C6486E" d="m28.549 13.64-1.276-1.358a.39.39 0 0 0-.248-.116L25.151 12a.383.383 0 0 1-.224-.663l1.367-1.284a.39.39 0 0 0 .116-.248l.166-1.873a.383.383 0 0 1 .663-.223l1.284 1.367c.066.066.15.107.248.116l1.881.165c.323.033.464.431.232.655l-1.433 1.383a.39.39 0 0 0-.116.249l-.133 1.756c-.024.332-.43.473-.662.232l.008.009ZM28.847 4.86l-.613-.655s-.075-.05-.116-.058l-.895-.083a.182.182 0 0 1-.108-.315l.655-.613s.05-.074.058-.116l.083-.895a.182.182 0 0 1 .314-.107l.614.654s.074.05.116.058l.903.083a.182.182 0 0 1 .107.315l-.687.663s-.05.074-.058.116l-.067.845c-.008.157-.207.232-.314.107h.008Z"/><path fill="#014459" d="M16.579 32.909a.401.401 0 0 1-.394-.36.4.4 0 0 1 .36-.428c4.412-.372 7.878-4.13 7.878-8.576 0-4.739-3.86-8.599-8.598-8.599a.399.399 0 0 1-.394-.394c0-.214.18-.394.394-.394 5.177 0 9.386 4.21 9.386 9.387 0 4.84-3.781 8.947-8.599 9.352h-.033v.012Z"/><path fill="#fff" d="M15.116.395H9.433V25.56h5.683V.395Z"/><path fill="#014459" d="M15.116 25.942H9.432a.399.399 0 0 1-.394-.393V.393c0-.214.18-.394.394-.394h5.684c.213 0 .394.18.394.394V25.56c0 .214-.18.394-.394.394v-.012Zm-5.301-.788h4.907V.788H9.815v24.378-.012Z"/><path fill="#fff" d="M16.14 6.123H8.406v16.252h7.732V6.123Z"/><path fill="#014459" d="M16.14 22.768H8.408a.399.399 0 0 1-.394-.394V6.122c0-.213.18-.393.394-.393h7.732c.213 0 .394.18.394.393v16.252c0 .214-.18.394-.394.394Zm-7.338-.788h6.944V6.516H8.802V21.98Z"/><path fill="#C6486E" d="M17.322 14.71c0 .8-.642 1.44-1.441 1.44s-1.44-.64-1.44-1.44c0-.799.641-1.44 1.44-1.44.8 0 1.44.641 1.44 1.44Z"/><path fill="#014459" d="M16.06 4.096H8.486a.399.399 0 0 1-.394-.393c0-.214.18-.394.394-.394h7.574c.214 0 .394.18.394.394 0 .213-.18.393-.394.393Z"/><path fill="#fff" d="M15.87 18.313a3.602 3.602 0 1 0 0-7.204 3.602 3.602 0 0 0 0 7.204Z"/><path fill="#014459" d="M15.87 18.706a3.996 3.996 0 1 1 .001-7.993 3.996 3.996 0 0 1-.002 7.993Zm0-7.203a3.213 3.213 0 0 0-3.208 3.207 3.213 3.213 0 0 0 3.207 3.208 3.213 3.213 0 0 0 3.208-3.208 3.213 3.213 0 0 0-3.208-3.207Z"/><path fill="#F2A4BC" d="M15.87 16.77a2.06 2.06 0 1 0 0-4.12 2.06 2.06 0 0 0 0 4.12Z"/><path fill="#fff" d="M19.415 30.04h-2.95v4.355h2.95v-4.356Z"/><path fill="#014459" d="M19.415 34.788h-2.949a.399.399 0 0 1-.394-.394V30.04c0-.214.18-.395.394-.395h2.949c.214 0 .394.18.394.395v4.355c0 .214-.18.394-.394.394ZM16.86 34h2.161v-3.568h-2.16V34Z"/><path fill="#fff" d="M24.164 38.244H.394v-2.667c0-.934.754-1.688 1.688-1.688h20.394c.934 0 1.688.754 1.688 1.688v2.667Z"/><path fill="#F2A4BC" d="M22.22 33.764H1.978c-1.092 0-1.414.699-1.414 1.125L0 37.493c0 .427.885.773 1.977.773H22.22c1.092 0 1.977-.346 1.977-.773v-2.957c0-.427-.885-.772-1.977-.772Z"/><path fill="#014459" d="M24.164 38.638H.394A.399.399 0 0 1 0 38.244v-2.668c0-1.148.934-2.082 2.082-2.082h20.394c1.148 0 2.082.934 2.082 2.082v2.668c0 .214-.18.394-.394.394ZM.788 37.85H23.77v-2.274c0-.72-.585-1.294-1.294-1.294H2.082c-.72 0-1.294.585-1.294 1.294v2.274ZM19.256 30.432H5.616a.399.399 0 0 1-.394-.393c0-.214.18-.395.394-.395h13.64c.214 0 .394.18.394.395 0 .213-.18.393-.393.393Z"/></svg>